<svg width="240" height="160" viewBox="0 0 240 160" fill="none" xmlns="http://www.w3.org/2000/svg">
<rect width="240" height="160" rx="12" fill="#2E2F47"/>
<mask id="mask0" mask-type="alpha" maskUnits="userSpaceOnUse" x="-1" y="-1" width="242" height="162">
<rect width="240" height="160" rx="12" fill="white" stroke="white"/>
</mask>
<g mask="url(#mask0)">
<ellipse opacity="0.2" cx="1.59238" cy="184.459" rx="97" ry="97.0564" transform="rotate(-70 1.59238 184.459)" fill="url(#paint0_linear)"/>
<ellipse opacity="0.1" cx="22.4651" cy="239.938" rx="57.8494" ry="115.766" transform="rotate(70 22.4651 239.938)" stroke="white" stroke-width="2" stroke-linecap="round" stroke-linejoin="round" stroke-dasharray="339.3 23.4 503.1"/>
<ellipse opacity="0.1" cx="70.6806" cy="113.342" rx="11.6867" ry="11.6935" transform="rotate(-70 70.6806 113.342)" fill="white"/>
<rect opacity="0.1" x="52.2101" y="76.6857" width="9.3494" height="9.35484" rx="2.34" transform="rotate(-25 52.2101 76.6857)" fill="white"/>
<path opacity="0.1" d="M-1.18402 63.8762C10.7383 68.2156 16.8867 81.3922 12.5503 93.3063C8.21397 105.22 -4.96574 111.362 -16.8881 107.023C-28.8105 102.683 -34.9588 89.5068 -30.6225 77.5927C-26.2861 65.6786 -13.1064 59.5368 -1.18402 63.8762Z" stroke="white" stroke-width="2"/>
</g>
<defs>
<linearGradient id="paint0_linear" x1="195.171" y1="150.955" x2="-1.18762" y2="9.55247" gradientUnits="userSpaceOnUse">
<stop stop-color="#686A92"/>
<stop stop-color="#66688F"/>
<stop offset="1" stop-color="#323348" stop-opacity="0.01"/>
</linearGradient>
</defs>
</svg>
