<svg width="17" height="17" viewBox="0 0 17 17" fill="none" xmlns="http://www.w3.org/2000/svg">
<mask id="mask0" mask-type="alpha" maskUnits="userSpaceOnUse" x="0" y="1" width="16" height="16">
<path fill-rule="evenodd" clip-rule="evenodd" d="M10.1557 1.26257H1.99563C1.22763 1.26257 0.555664 1.93379 0.555664 2.70089C0.555664 3.46798 1.22763 4.13919 1.99563 4.13919H10.1557V1.26257ZM14.9556 6.05695H0.555664V14.6868C0.555664 15.7416 1.41972 16.6046 2.47562 16.6046H14.9556C15.5317 16.6046 15.9157 16.221 15.9157 15.6457V7.01582C15.9157 6.4405 15.5317 6.05695 14.9556 6.05695ZM11.1157 11.3308C11.1157 12.0979 11.7877 12.7691 12.5556 12.7691C13.3237 12.7691 13.9956 12.0979 13.9956 11.3308C13.9956 10.5637 13.3237 9.89245 12.5556 9.89245C11.7877 9.89245 11.1157 10.5637 11.1157 11.3308Z" fill="white"/>
</mask>
<g mask="url(#mask0)">
<path fill-rule="evenodd" clip-rule="evenodd" d="M-3.28467 -2.573H19.7553V20.44H-3.28467V-2.573Z" fill="white"/>
</g>
</svg>
