<svg width="17" height="17" viewBox="0 0 17 17" fill="none" xmlns="http://www.w3.org/2000/svg">
<mask id="mask0" mask-type="alpha" maskUnits="userSpaceOnUse" x="1" y="1" width="16" height="16">
<path fill-rule="evenodd" clip-rule="evenodd" d="M1.34296 8.93357C1.34296 4.71451 4.79894 1.26257 9.02291 1.26257C13.2469 1.26257 16.703 4.71451 16.703 8.93357C16.703 13.1526 13.2469 16.6046 9.02291 16.6046C4.79894 16.6046 1.34296 13.1526 1.34296 8.93357ZM10.7509 9.70066L12.095 6.82404C12.287 6.24872 11.7111 5.6734 11.135 5.96105L8.25491 7.30348C7.87096 7.39937 7.58294 7.78293 7.39098 8.16648L6.04693 11.0431C5.75891 11.6184 6.33495 12.1937 6.91099 11.9061L9.79093 10.5637C10.175 10.3719 10.463 10.0842 10.7509 9.70066Z" fill="white"/>
</mask>
<g mask="url(#mask0)">
<path fill-rule="evenodd" clip-rule="evenodd" d="M-36.097 -15.9972H54.143V33.8643H-36.097V-15.9972Z" fill="white"/>
</g>
</svg>
