<svg width="160" height="160" viewBox="0 0 160 160" fill="none" xmlns="http://www.w3.org/2000/svg">
<g clip-path="url(#clip0)">
<g filter="url(#filter0_f)">
<path fill-rule="evenodd" clip-rule="evenodd" d="M82.7 127.8C104.184 127.8 121.6 110.384 121.6 88.9C121.6 67.4161 104.184 50 82.7 50C61.2161 50 43.8 67.4161 43.8 88.9C43.8 110.384 61.2161 127.8 82.7 127.8Z" fill="#F9A92E" fill-opacity="0.5"/>
</g>
<path opacity="0.2" fill-rule="evenodd" clip-rule="evenodd" d="M80 160C124.183 160 160 124.183 160 80C160 35.8172 124.183 0 80 0C35.8172 0 0 35.8172 0 80C0 124.183 35.8172 160 80 160Z" fill="url(#paint0_linear)"/>
<path fill-rule="evenodd" clip-rule="evenodd" d="M81.6 131.2C109.877 131.2 132.8 108.277 132.8 80C132.8 51.723 109.877 28.8 81.6 28.8C53.323 28.8 30.4 51.723 30.4 80C30.4 108.277 53.323 131.2 81.6 131.2Z" fill="url(#paint1_linear)"/>
</g>
<defs>
<filter id="filter0_f" x="-12.0067" y="-5.80669" width="189.413" height="189.413" filterUnits="userSpaceOnUse" color-interpolation-filters="sRGB">
<feFlood flood-opacity="0" result="BackgroundImageFix"/>
<feBlend mode="normal" in="SourceGraphic" in2="BackgroundImageFix" result="shape"/>
<feGaussianBlur stdDeviation="27.9033" result="effect1_foregroundBlur"/>
</filter>
<linearGradient id="paint0_linear" x1="76.7644" y1="-18.9044" x2="-20.9299" y2="107.097" gradientUnits="userSpaceOnUse">
<stop stop-color="#66688F"/>
<stop offset="1" stop-color="#323348" stop-opacity="0.01"/>
</linearGradient>
<linearGradient id="paint1_linear" x1="99.9997" y1="43.0005" x2="18.0008" y2="173.001" gradientUnits="userSpaceOnUse">
<stop stop-color="#FF4465"/>
<stop offset="1" stop-color="#F3FF00"/>
</linearGradient>
<clipPath id="clip0">
<rect width="160" height="160" fill="white"/>
</clipPath>
</defs>
</svg>
