<svg width="180" height="37" viewBox="0 0 180 37" fill="none" xmlns="http://www.w3.org/2000/svg">
<path fill-rule="evenodd" clip-rule="evenodd" d="M54.5625 36.4922V16.1016H50.7891V11.1328H54.5625V8.97659C54.5625 6.13279 55.375 3.92969 57 2.36719C58.6407 0.78907 60.9296 0 63.8671 0C64.8046 0 65.9531 0.15625 67.3126 0.46875L67.2421 5.71879C66.6796 5.57809 65.9921 5.50779 65.1796 5.50779C62.6329 5.50779 61.3594 6.70309 61.3594 9.09379V11.1328H66.3985V16.1016H61.3594V36.4922H54.5625ZM7.03125 30.8438H21.961V36.4922H0V2.36719H7.03125V30.8438ZM24.5156 23.5781C24.5156 21.0625 25 18.8203 25.9688 16.8516C26.9375 14.8828 28.3281 13.3594 30.1406 12.2813C31.9688 11.2031 34.0859 10.6641 36.4921 10.6641C39.9141 10.6641 42.7032 11.711 44.8594 13.8047C47.0312 15.8984 48.2421 18.7422 48.4921 22.336L48.539 24.0703C48.539 27.961 47.4532 31.086 45.2812 33.4453C43.1093 35.7891 40.1954 36.961 36.5391 36.961C32.8829 36.961 29.9609 35.7891 27.7734 33.4453C25.6015 31.1016 24.5156 27.9141 24.5156 23.8828V23.5781ZM32.6484 29.6016C31.7421 28.3203 31.289 26.4766 31.289 24.0703C31.289 21.3672 31.7421 19.375 32.6484 18.0938C33.5546 16.7969 34.8359 16.1484 36.4921 16.1484C38.1641 16.1484 39.4609 16.7969 40.3829 18.0938C41.3046 19.3906 41.7656 21.2188 41.7656 23.5781C41.7656 26.3438 41.3046 28.3594 40.3829 29.625C39.4609 30.875 38.1796 31.5 36.539 31.5C34.8515 31.5 33.5546 30.8672 32.6484 29.6016ZM78.0235 11.1328V4.89839H71.25V11.1328H67.5469V16.1016H71.25V29.7656C71.3438 34.5625 73.7657 36.961 78.5157 36.961C79.9219 36.961 81.2891 36.7578 82.6171 36.3516V31.2188C82.0391 31.3281 81.375 31.3828 80.625 31.3828C79.6094 31.3828 78.9219 31.1797 78.5626 30.7734C78.2032 30.3672 78.0235 29.6953 78.0235 28.7578V16.1016H82.3594V11.1328H78.0235ZM113.367 25.125C113.102 28.7969 111.742 31.6875 109.289 33.7969C106.852 35.9063 103.633 36.961 99.6328 36.961C95.2579 36.961 91.8126 35.4922 89.2969 32.5547C86.7969 29.6016 85.5469 25.5547 85.5469 20.4141V18.3281C85.5469 15.0469 86.125 12.1563 87.2812 9.65629C88.4376 7.15629 90.086 5.24219 92.2266 3.91409C94.3829 2.57029 96.8828 1.89839 99.7268 1.89839C103.664 1.89839 106.836 2.95309 109.242 5.06249C111.649 7.17189 113.039 10.1328 113.414 13.9453H106.383C106.211 11.7422 105.594 10.1484 104.532 9.16409C103.485 8.16409 101.883 7.66409 99.7268 7.66409C97.3828 7.66409 95.625 8.50779 94.4532 10.1953C93.2969 11.8672 92.7032 14.4688 92.6719 18V20.5781C92.6719 24.2656 93.2266 26.961 94.336 28.6641C95.461 30.3672 97.2268 31.2188 99.6328 31.2188C101.805 31.2188 103.422 30.7266 104.485 29.7422C105.563 28.7422 106.18 27.2031 106.336 25.125H113.367ZM117.938 16.8516C116.969 18.8203 116.485 21.0625 116.485 23.5781V23.8828C116.485 27.9141 117.571 31.1016 119.742 33.4453C121.93 35.7891 124.852 36.961 128.508 36.961C132.164 36.961 135.078 35.7891 137.25 33.4453C139.422 31.086 140.508 27.961 140.508 24.0703L140.461 22.336C140.211 18.7422 139 15.8984 136.828 13.8047C134.672 11.711 131.883 10.6641 128.461 10.6641C126.055 10.6641 123.938 11.2031 122.11 12.2813C120.297 13.3594 118.906 14.8828 117.938 16.8516ZM123.258 24.0703C123.258 26.4766 123.711 28.3203 124.617 29.6016C125.524 30.8672 126.821 31.5 128.508 31.5C130.149 31.5 131.43 30.875 132.352 29.625C133.274 28.3594 133.735 26.3438 133.735 23.5781C133.735 21.2188 133.274 19.3906 132.352 18.0938C131.43 16.7969 130.133 16.1484 128.461 16.1484C126.805 16.1484 125.524 16.7969 124.617 18.0938C123.711 19.375 123.258 21.3672 123.258 24.0703ZM151.828 36.4922V11.1328H145.032V36.4922H151.828ZM144.633 4.57029C144.633 3.55469 144.969 2.71879 145.641 2.06249C146.328 1.40625 147.258 1.07813 148.43 1.07813C149.586 1.07813 150.508 1.40625 151.196 2.06249C151.883 2.71879 152.227 3.55469 152.227 4.57029C152.227 5.60159 151.875 6.44529 151.172 7.10159C150.485 7.75779 149.571 8.08599 148.43 8.08599C147.289 8.08599 146.367 7.75779 145.664 7.10159C144.977 6.44529 144.633 5.60159 144.633 4.57029ZM163.875 14.0625L163.664 11.1328H157.289V36.4922H164.063V18.6094C165.016 16.9844 166.446 16.1719 168.352 16.1719C169.805 16.1719 170.844 16.5 171.469 17.1563C172.094 17.7969 172.406 18.836 172.406 20.2734V36.4922H179.18V20.1094C179.149 16.9688 178.477 14.6094 177.164 13.0313C175.852 11.4531 173.852 10.6641 171.164 10.6641C168.117 10.6641 165.688 11.7969 163.875 14.0625Z" fill="white"/>
</svg>
