<svg width="168" height="168" viewBox="0 0 168 168" fill="none" xmlns="http://www.w3.org/2000/svg">
<rect y="18" width="168" height="133" rx="12" fill="#2E2F47"/>
<path fill-rule="evenodd" clip-rule="evenodd" d="M19.2 48.8659C19.2 42.3125 24.5684 37 31.1908 37C37.8131 37 43.1813 42.3125 43.1813 48.8659C43.1813 55.4192 37.8131 60.7318 31.1908 60.7318C24.5684 60.7318 19.2 55.4192 19.2 48.8659ZM33.8374 54.1788C34.2743 54.1226 35.2031 54.0034 36.073 53.4029C36.9649 52.7871 37.1654 51.8221 37.1857 50.8503C37.2069 49.8786 36.8331 49.2149 36.3287 48.8385C35.8236 48.462 35.1045 48.3116 35.1045 48.3116C35.1045 48.3116 35.7131 47.9626 35.9618 47.6134C36.211 47.2647 36.3354 46.724 36.356 46.4434C36.3768 46.1628 36.4254 44.9859 35.4986 44.3084C34.7818 43.7842 33.9605 43.5762 32.8572 43.5085V41.1332H31.3773V43.4804H30.2502V41.1332H28.7705V43.4804H25.8593V45.0009H26.7147C26.9483 45.0009 27.363 45.0266 27.5394 45.2219C27.7157 45.4168 27.7469 45.5196 27.7469 45.8991V51.9586C27.7469 52.1026 27.7192 52.2804 27.5948 52.3968C27.4703 52.513 27.3461 52.5403 27.0486 52.5403H26.1635L25.8594 54.2993H28.7706V56.6398H30.2504V54.2993H31.3775V56.6398H32.8574V54.2608C33.2398 54.2386 33.5965 54.2101 33.8046 54.183L33.8374 54.1788ZM33.5487 49.7898C33.2723 49.6528 32.6567 49.4682 31.9239 49.4202C31.1908 49.3723 30.2504 49.4202 30.2504 49.4202V52.5611C30.2504 52.5611 31.2323 52.5818 31.8895 52.5339C32.5461 52.4859 33.2239 52.3218 33.5627 52.1368C33.9014 51.952 34.3095 51.6646 34.3095 50.9463C34.3095 50.2276 33.8254 49.9267 33.5487 49.7898ZM33.0093 47.593C32.5947 47.8189 32.0208 47.9419 31.4812 47.9626C30.9468 47.983 30.2631 47.9629 30.2505 47.9626L30.2503 47.9626V45.1364C30.2503 45.1364 30.7206 45.0954 31.1839 45.1021C31.6475 45.1089 32.0552 45.1226 32.6638 45.3074C33.2723 45.4924 33.6316 45.9439 33.6457 46.4777C33.6593 47.0116 33.4242 47.3672 33.0093 47.593Z" fill="#F5FF30"/>
<g clip-path="url(#clip0)">
<path d="M20.1077 98.3687V90.5484H22.6643C23.5129 90.5484 24.1503 90.7239 24.5764 91.0748C25.0061 91.4257 25.2209 91.9449 25.2209 92.6324C25.2209 92.9977 25.1171 93.3217 24.9094 93.6046C24.7017 93.8839 24.4189 94.1005 24.0608 94.2545C24.4833 94.3727 24.8163 94.5982 25.0598 94.9312C25.3069 95.2607 25.4304 95.6546 25.4304 96.1129C25.4304 96.8147 25.203 97.3661 24.7483 97.7672C24.2935 98.1682 23.6508 98.3687 22.8201 98.3687H20.1077ZM21.1389 94.711V97.5255H22.8416C23.3214 97.5255 23.6991 97.4019 23.9749 97.1549C24.2542 96.9042 24.3938 96.5605 24.3938 96.1236C24.3938 95.1819 23.8818 94.711 22.8577 94.711H21.1389ZM21.1389 93.8839H22.6965C23.1477 93.8839 23.5076 93.7711 23.7761 93.5455C24.0483 93.3199 24.1843 93.0138 24.1843 92.627C24.1843 92.1974 24.059 91.8858 23.8083 91.6925C23.5577 91.4955 23.1764 91.3971 22.6643 91.3971H21.1389V93.8839ZM28.6676 98.3687H27.6364V90.5484H28.6676V98.3687ZM36.4004 91.3971H33.8868V98.3687H32.8609V91.3971H30.3526V90.5484H36.4004V91.3971ZM43.7626 95.8873C43.666 96.7144 43.3598 97.3536 42.8442 97.8048C42.3321 98.2524 41.65 98.4762 40.7978 98.4762C39.874 98.4762 39.1328 98.1449 38.5742 97.4825C38.0192 96.8201 37.7416 95.9338 37.7416 94.8238V94.0719C37.7416 93.345 37.8706 92.7058 38.1284 92.1544C38.3898 91.603 38.7586 91.1804 39.2348 90.8868C39.7111 90.5896 40.2625 90.441 40.8891 90.441C41.7198 90.441 42.3859 90.6738 42.8872 91.1393C43.3885 91.6012 43.6803 92.2421 43.7626 93.0621H42.726C42.6365 92.4391 42.4414 91.9879 42.1406 91.7086C41.8434 91.4293 41.4262 91.2896 40.8891 91.2896C40.2303 91.2896 39.7128 91.5331 39.3369 92.0201C38.9645 92.5071 38.7783 93.2 38.7783 94.0987V94.856C38.7783 95.7047 38.9555 96.3796 39.31 96.881C39.6645 97.3823 40.1604 97.6329 40.7978 97.6329C41.3707 97.6329 41.8094 97.504 42.1137 97.2462C42.4217 96.9848 42.6258 96.5318 42.726 95.8873H43.7626ZM51.7909 94.711C51.7909 95.4773 51.662 96.1469 51.4042 96.7198C51.1463 97.2892 50.7811 97.7242 50.3084 98.025C49.8358 98.3258 49.2844 98.4762 48.6542 98.4762C48.0383 98.4762 47.4922 98.3258 47.016 98.025C46.5397 97.7206 46.1691 97.2892 45.9042 96.7306C45.6428 96.1684 45.5085 95.5185 45.5013 94.7809V94.2169C45.5013 93.4649 45.632 92.8007 45.8934 92.2242C46.1548 91.6477 46.5236 91.2073 46.9999 90.9029C47.4797 90.595 48.0275 90.441 48.6434 90.441C49.27 90.441 49.8215 90.5932 50.2977 90.8976C50.7775 91.1983 51.1463 91.637 51.4042 92.2135C51.662 92.7864 51.7909 93.4542 51.7909 94.2169V94.711ZM50.765 94.2061C50.765 93.2787 50.5788 92.568 50.2064 92.0738C49.834 91.5761 49.313 91.3272 48.6434 91.3272C47.9917 91.3272 47.4779 91.5761 47.1019 92.0738C46.7295 92.568 46.5379 93.2555 46.5272 94.1363V94.711C46.5272 95.6098 46.7152 96.317 47.0912 96.8326C47.4707 97.3447 47.9917 97.6007 48.6542 97.6007C49.3202 97.6007 49.8358 97.359 50.201 96.8756C50.5663 96.3886 50.7542 95.6921 50.765 94.7862V94.2061ZM55.0442 98.3687H54.0129V90.5484H55.0442V98.3687ZM63.5451 98.3687H62.5084L58.5714 92.3424V98.3687H57.5348V90.5484H58.5714L62.5192 96.6017V90.5484H63.5451V98.3687Z" fill="#66688F"/>
<path d="M25.8875 121.97C25.8875 121.491 25.7182 121.087 25.3796 120.759C25.0463 120.431 24.4812 120.134 23.6843 119.869C22.575 119.53 21.7651 119.09 21.2546 118.548C20.7494 118.002 20.4968 117.309 20.4968 116.47C20.4968 115.616 20.7442 114.916 21.239 114.369C21.739 113.822 22.4239 113.496 23.2937 113.392V111.681H24.4578V113.4C25.3328 113.52 26.0125 113.887 26.4968 114.502C26.9864 115.116 27.2312 115.957 27.2312 117.025H25.7937C25.7937 116.291 25.6192 115.707 25.2703 115.275C24.9213 114.843 24.45 114.627 23.8562 114.627C23.2364 114.627 22.7625 114.788 22.4343 115.111C22.1062 115.429 21.9421 115.874 21.9421 116.447C21.9421 116.978 22.114 117.403 22.4578 117.72C22.8067 118.033 23.377 118.319 24.1687 118.58C24.9656 118.835 25.5854 119.119 26.0281 119.431C26.476 119.739 26.8041 120.098 27.0125 120.509C27.226 120.921 27.3328 121.403 27.3328 121.955C27.3328 122.835 27.0671 123.543 26.5359 124.08C26.0098 124.616 25.2703 124.934 24.3171 125.033V126.525H23.1609V125.033C22.1921 124.944 21.4317 124.601 20.8796 124.002C20.3328 123.397 20.0593 122.58 20.0593 121.548H21.5046C21.5046 122.272 21.6947 122.83 22.075 123.22C22.4552 123.611 22.9942 123.806 23.6921 123.806C24.3744 123.806 24.9109 123.642 25.3015 123.314C25.6921 122.986 25.8875 122.538 25.8875 121.97ZM33.8796 124.9H32.4265V115.267L29.5125 116.337V115.025L33.6531 113.47H33.8796V124.9ZM38.7781 119.197L39.3562 113.525H45.1843V114.861H40.5828L40.239 117.962C40.7963 117.634 41.4291 117.47 42.1375 117.47C43.1739 117.47 43.9968 117.814 44.6062 118.502C45.2156 119.184 45.5203 120.108 45.5203 121.275C45.5203 122.447 45.2026 123.371 44.5671 124.048C43.9369 124.72 43.0541 125.056 41.9187 125.056C40.9135 125.056 40.0932 124.778 39.4578 124.22C38.8223 123.663 38.4604 122.892 38.3718 121.908H39.739C39.8276 122.559 40.0593 123.051 40.4343 123.384C40.8093 123.712 41.3041 123.877 41.9187 123.877C42.5906 123.877 43.1166 123.647 43.4968 123.189C43.8822 122.731 44.075 122.098 44.075 121.291C44.075 120.53 43.8666 119.921 43.45 119.462C43.0385 118.999 42.489 118.767 41.8015 118.767C41.1713 118.767 40.6765 118.905 40.3171 119.181L39.9343 119.494L38.7781 119.197ZM57.9656 116.494C57.9656 117.061 57.8145 117.567 57.5125 118.009C57.2156 118.452 56.8119 118.798 56.3015 119.048C56.8953 119.304 57.364 119.676 57.7078 120.166C58.0567 120.655 58.2312 121.21 58.2312 121.83C58.2312 122.814 57.8979 123.598 57.2312 124.181C56.5697 124.765 55.6973 125.056 54.614 125.056C53.5203 125.056 52.6427 124.765 51.9812 124.181C51.325 123.593 50.9968 122.809 50.9968 121.83C50.9968 121.215 51.1635 120.66 51.4968 120.166C51.8354 119.671 52.3015 119.296 52.8953 119.041C52.3901 118.791 51.9916 118.444 51.7 118.002C51.4083 117.559 51.2625 117.056 51.2625 116.494C51.2625 115.535 51.5697 114.775 52.1843 114.212C52.7989 113.65 53.6088 113.369 54.614 113.369C55.614 113.369 56.4213 113.65 57.0359 114.212C57.6557 114.775 57.9656 115.535 57.9656 116.494ZM56.7859 121.798C56.7859 121.163 56.5828 120.645 56.1765 120.244C55.7755 119.843 55.2494 119.642 54.5984 119.642C53.9473 119.642 53.4239 119.84 53.0281 120.236C52.6375 120.632 52.4421 121.153 52.4421 121.798C52.4421 122.444 52.6322 122.952 53.0125 123.322C53.3979 123.692 53.9317 123.877 54.614 123.877C55.2911 123.877 55.8223 123.692 56.2078 123.322C56.5932 122.947 56.7859 122.439 56.7859 121.798ZM54.614 114.556C54.0463 114.556 53.5854 114.733 53.2312 115.087C52.8822 115.436 52.7078 115.913 52.7078 116.517C52.7078 117.095 52.8796 117.564 53.2234 117.923C53.5723 118.278 54.0359 118.455 54.614 118.455C55.1921 118.455 55.6531 118.278 55.9968 117.923C56.3458 117.564 56.5203 117.095 56.5203 116.517C56.5203 115.939 56.3406 115.468 55.9812 115.103C55.6218 114.739 55.1661 114.556 54.614 114.556ZM67.1843 120.048C67.1843 121.741 66.8953 122.999 66.3171 123.822C65.739 124.645 64.8354 125.056 63.6062 125.056C62.3927 125.056 61.4942 124.655 60.9109 123.853C60.3276 123.046 60.0255 121.843 60.0046 120.244V118.314C60.0046 116.642 60.2937 115.4 60.8718 114.587C61.45 113.775 62.3562 113.369 63.5906 113.369C64.8145 113.369 65.7156 113.762 66.2937 114.548C66.8718 115.33 67.1687 116.538 67.1843 118.173V120.048ZM65.739 118.072C65.739 116.848 65.5671 115.957 65.2234 115.4C64.8796 114.837 64.3354 114.556 63.5906 114.556C62.851 114.556 62.3119 114.835 61.9734 115.392C61.6348 115.949 61.4604 116.806 61.45 117.962V120.275C61.45 121.504 61.627 122.413 61.9812 123.002C62.3406 123.585 62.8822 123.877 63.6062 123.877C64.3197 123.877 64.8484 123.601 65.1921 123.048C65.5411 122.496 65.7234 121.627 65.739 120.439V118.072ZM75.9343 116.494C75.9343 117.061 75.7833 117.567 75.4812 118.009C75.1843 118.452 74.7807 118.798 74.2703 119.048C74.864 119.304 75.3328 119.676 75.6765 120.166C76.0255 120.655 76.2 121.21 76.2 121.83C76.2 122.814 75.8666 123.598 75.2 124.181C74.5385 124.765 73.6661 125.056 72.5828 125.056C71.489 125.056 70.6114 124.765 69.95 124.181C69.2937 123.593 68.9656 122.809 68.9656 121.83C68.9656 121.215 69.1322 120.66 69.4656 120.166C69.8041 119.671 70.2703 119.296 70.864 119.041C70.3588 118.791 69.9604 118.444 69.6687 118.002C69.377 117.559 69.2312 117.056 69.2312 116.494C69.2312 115.535 69.5385 114.775 70.1531 114.212C70.7677 113.65 71.5776 113.369 72.5828 113.369C73.5828 113.369 74.3901 113.65 75.0046 114.212C75.6244 114.775 75.9343 115.535 75.9343 116.494ZM74.7546 121.798C74.7546 121.163 74.5515 120.645 74.1453 120.244C73.7442 119.843 73.2182 119.642 72.5671 119.642C71.9161 119.642 71.3927 119.84 70.9968 120.236C70.6062 120.632 70.4109 121.153 70.4109 121.798C70.4109 122.444 70.601 122.952 70.9812 123.322C71.3666 123.692 71.9005 123.877 72.5828 123.877C73.2598 123.877 73.7911 123.692 74.1765 123.322C74.5619 122.947 74.7546 122.439 74.7546 121.798ZM72.5828 114.556C72.0151 114.556 71.5541 114.733 71.2 115.087C70.851 115.436 70.6765 115.913 70.6765 116.517C70.6765 117.095 70.8484 117.564 71.1921 117.923C71.5411 118.278 72.0046 118.455 72.5828 118.455C73.1609 118.455 73.6218 118.278 73.9656 117.923C74.3145 117.564 74.489 117.095 74.489 116.517C74.489 115.939 74.3093 115.468 73.95 115.103C73.5906 114.739 73.1348 114.556 72.5828 114.556ZM78.1218 127.166L77.3015 126.603C77.7911 125.921 78.0463 125.218 78.0671 124.494V123.189H79.4812V124.322C79.4812 124.848 79.351 125.374 79.0906 125.9C78.8354 126.426 78.5125 126.848 78.1218 127.166ZM85.9109 124.9H84.4578V115.267L81.5437 116.337V115.025L85.6843 113.47H85.9109V124.9ZM95.6843 119.9C95.3822 120.259 95.0203 120.548 94.5984 120.767C94.1817 120.986 93.7234 121.095 93.2234 121.095C92.5671 121.095 91.9942 120.934 91.5046 120.611C91.0203 120.288 90.6453 119.835 90.3796 119.252C90.114 118.663 89.9812 118.015 89.9812 117.306C89.9812 116.546 90.1244 115.861 90.4109 115.252C90.7026 114.642 91.114 114.176 91.6453 113.853C92.1765 113.53 92.7963 113.369 93.5046 113.369C94.6296 113.369 95.5151 113.791 96.1609 114.634C96.8119 115.473 97.1375 116.619 97.1375 118.072V118.494C97.1375 120.707 96.7 122.324 95.825 123.345C94.95 124.361 93.6296 124.882 91.864 124.908H91.5828V123.689H91.8875C93.0802 123.668 93.9968 123.358 94.6375 122.759C95.2781 122.155 95.627 121.202 95.6843 119.9ZM93.4578 119.9C93.9421 119.9 94.3875 119.752 94.7937 119.455C95.2052 119.158 95.5046 118.791 95.6921 118.353V117.775C95.6921 116.827 95.4864 116.056 95.075 115.462C94.6635 114.869 94.1427 114.572 93.5125 114.572C92.877 114.572 92.3666 114.817 91.9812 115.306C91.5958 115.791 91.4031 116.431 91.4031 117.228C91.4031 118.004 91.588 118.645 91.9578 119.15C92.3328 119.65 92.8328 119.9 93.4578 119.9Z" fill="white"/>
</g>
<defs>
<clipPath id="clip0">
<rect width="102" height="40" fill="white" transform="translate(19.2 89.4375)"/>
</clipPath>
</defs>
</svg>
