<svg width="168" height="168" viewBox="0 0 168 168" fill="none" xmlns="http://www.w3.org/2000/svg">
<rect x="49" y="95" width="119" height="29.9845" rx="12" fill="#2E2F47"/>
<path fill-rule="evenodd" clip-rule="evenodd" d="M67.5399 103.571C63.9681 103.571 61.0725 106.45 61.0725 110C61.0725 113.55 63.9681 116.429 67.5399 116.429C71.1117 116.429 74.0073 113.55 74.0073 110C74.0073 106.45 71.1117 103.571 67.5399 103.571ZM67.4561 114.259L64.9002 110.665L67.4561 112.153V114.259ZM64.8829 110.128L67.4561 111.626V109.008L64.8829 110.128ZM67.4561 108.828L64.9658 109.912L67.4561 105.753V108.828ZM70.1472 109.927L67.6219 105.752V108.828L70.1472 109.927ZM67.6219 114.259V112.153L70.1778 110.665L67.6219 114.259ZM67.6219 109.008V111.626L70.1969 110.129L67.6219 109.008Z" fill="white"/>
<path d="M138.366 111.509H135.154V113.915H138.908V115H133.795V107.18H138.871V108.275H135.154V110.435H138.366V111.509ZM146.372 108.275H143.934V115H142.586V108.275H140.169V107.18H146.372V108.275ZM154.213 115H152.859V111.525H149.363V115H148.004V107.18H149.363V110.435H152.859V107.18H154.213V115Z" fill="#66688F"/>
<path d="M106.12 115H104.82V108.721L102.902 109.376V108.275L105.953 107.153H106.12V115ZM114.642 107.905L111.516 115H110.146L113.267 108.227H109.223V107.18H114.642V107.905ZM117.186 113.625C117.43 113.625 117.618 113.695 117.75 113.834C117.883 113.971 117.949 114.142 117.949 114.35C117.949 114.554 117.883 114.724 117.75 114.86C117.618 114.993 117.43 115.059 117.186 115.059C116.954 115.059 116.769 114.993 116.633 114.86C116.497 114.728 116.429 114.558 116.429 114.35C116.429 114.142 116.495 113.971 116.628 113.834C116.76 113.695 116.946 113.625 117.186 113.625ZM123.496 115H122.196V108.721L120.279 109.376V108.275L123.329 107.153H123.496V115Z" fill="#9EA0C3"/>
<rect y="42" width="119" height="29.9845" rx="12" fill="#2E2F47"/>
<path fill-rule="evenodd" clip-rule="evenodd" d="M12.0782 56.8011C12.0782 53.2462 15.018 50.3645 18.6442 50.3645C22.2705 50.3645 25.2101 53.2462 25.2101 56.8011C25.2101 60.356 22.2705 63.2378 18.6442 63.2378C15.018 63.2378 12.0782 60.356 12.0782 56.8011ZM20.0935 59.6831C20.3328 59.6527 20.8413 59.588 21.3177 59.2622C21.8061 58.9282 21.9159 58.4047 21.927 57.8776C21.9386 57.3505 21.7339 56.9905 21.4577 56.7863C21.1811 56.5821 20.7874 56.5005 20.7874 56.5005C20.7874 56.5005 21.1206 56.3111 21.2568 56.1217C21.3933 55.9326 21.4614 55.6393 21.4727 55.487C21.484 55.3348 21.5107 54.6964 21.0032 54.3289C20.6106 54.0446 20.1609 53.9318 19.5568 53.895V52.6065H18.7464V53.8798H18.1292V52.6065H17.3189V53.8798H15.7248V54.7046H16.1932C16.3211 54.7046 16.5482 54.7185 16.6448 54.8244C16.7414 54.9302 16.7584 54.9859 16.7584 55.1918V58.4788C16.7584 58.5569 16.7433 58.6533 16.6751 58.7165C16.607 58.7795 16.539 58.7943 16.3761 58.7943H15.8914L15.7249 59.7485H17.319V61.0181H18.1293V59.7485H18.7465V61.0181H19.5569V59.7276C19.7663 59.7156 19.9616 59.7001 20.0756 59.6854L20.0935 59.6831ZM19.9354 57.3023C19.7841 57.228 19.447 57.1279 19.0457 57.1018C18.6442 57.0758 18.1293 57.1018 18.1293 57.1018V58.8056C18.1293 58.8056 18.667 58.8168 19.0269 58.7908C19.3864 58.7648 19.7576 58.6758 19.9431 58.5754C20.1285 58.4752 20.352 58.3193 20.352 57.9296C20.352 57.5398 20.0869 57.3766 19.9354 57.3023ZM19.64 56.1107C19.413 56.2332 19.0988 56.2999 18.8033 56.3111C18.5107 56.3222 18.1362 56.3113 18.1294 56.3111L18.1293 56.3111V54.7781C18.1293 54.7781 18.3868 54.7558 18.6405 54.7595C18.8944 54.7631 19.1176 54.7706 19.4509 54.8708C19.7841 54.9712 19.9808 55.2161 19.9886 55.5057C19.996 55.7953 19.8673 55.9882 19.64 56.1107Z" fill="#F5FF30"/>
<path d="M60.1196 61H58.8198V54.7212L56.9023 55.3765V54.2754L59.9531 53.1528H60.1196V61ZM64.3344 59.625C64.5779 59.625 64.7659 59.6948 64.8983 59.8345C65.0308 59.9705 65.0971 60.1424 65.0971 60.3501C65.0971 60.5542 65.0308 60.7243 64.8983 60.8604C64.7659 60.9928 64.5779 61.0591 64.3344 61.0591C64.1016 61.0591 63.9172 60.9928 63.7812 60.8604C63.6451 60.7279 63.5771 60.5578 63.5771 60.3501C63.5771 60.1424 63.6433 59.9705 63.7758 59.8345C63.9083 59.6948 64.0945 59.625 64.3344 59.625ZM72.368 61H67.1097V60.103L69.7146 57.2617C70.0906 56.8428 70.3574 56.4937 70.5149 56.2144C70.6761 55.9315 70.7566 55.6486 70.7566 55.3657C70.7566 54.9933 70.651 54.6925 70.4397 54.4634C70.2321 54.2342 69.951 54.1196 69.5965 54.1196C69.174 54.1196 68.8463 54.2485 68.6136 54.5063C68.3808 54.7642 68.2645 55.1169 68.2645 55.5645H66.9593C66.9593 55.0882 67.0667 54.6603 67.2815 54.2808C67.5 53.8976 67.8097 53.6004 68.2107 53.3892C68.6154 53.1779 69.0809 53.0723 69.6072 53.0723C70.3663 53.0723 70.9643 53.2638 71.4012 53.647C71.8416 54.0265 72.0618 54.5529 72.0618 55.2261C72.0618 55.6164 71.9508 56.0264 71.7288 56.4561C71.5104 56.8822 71.1505 57.3674 70.6492 57.9116L68.7371 59.958H72.368V61ZM75.4709 56.4937H76.2658C76.6669 56.4901 76.9838 56.3862 77.2165 56.1821C77.4528 55.978 77.571 55.6826 77.571 55.2959C77.571 54.9235 77.4725 54.6353 77.2756 54.4312C77.0822 54.2235 76.785 54.1196 76.384 54.1196C76.0331 54.1196 75.7448 54.2217 75.5192 54.4258C75.2937 54.6263 75.1809 54.8895 75.1809 55.2153H73.8757C73.8757 54.8143 73.9813 54.4491 74.1926 54.1196C74.4074 53.7902 74.7046 53.5342 75.0842 53.3516C75.4673 53.1654 75.8952 53.0723 76.3679 53.0723C77.1485 53.0723 77.7608 53.2692 78.2048 53.6631C78.6524 54.0534 78.8762 54.5977 78.8762 55.2959C78.8762 55.6468 78.7634 55.978 78.5378 56.2896C78.3158 56.5975 78.0275 56.8302 77.673 56.9878C78.1027 57.1346 78.4286 57.3656 78.6506 57.6807C78.8762 57.9958 78.989 58.3717 78.989 58.8086C78.989 59.5104 78.7473 60.069 78.2639 60.4844C77.784 60.8997 77.1521 61.1074 76.3679 61.1074C75.6159 61.1074 75 60.9069 74.5202 60.5059C74.0404 60.1048 73.8005 59.5713 73.8005 58.9053H75.1057C75.1057 59.249 75.2202 59.5283 75.4494 59.7432C75.6822 59.958 75.9937 60.0654 76.384 60.0654C76.7886 60.0654 77.1073 59.958 77.34 59.7432C77.5728 59.5283 77.6892 59.2168 77.6892 58.8086C77.6892 58.3968 77.5674 58.0799 77.3239 57.8579C77.0804 57.6359 76.7188 57.5249 76.239 57.5249H75.4709V56.4937Z" fill="#9EA0C3"/>
<path d="M88.7949 61V53.1797H91.4751C92.3595 53.1797 93.0327 53.3569 93.4946 53.7114C93.9565 54.0659 94.1875 54.5941 94.1875 55.2959C94.1875 55.654 94.0908 55.9762 93.8975 56.2627C93.7041 56.5492 93.4212 56.7712 93.0488 56.9287C93.4714 57.0433 93.7972 57.2599 94.0264 57.5786C94.2591 57.8937 94.3755 58.2733 94.3755 58.7173C94.3755 59.4513 94.1392 60.0153 93.6665 60.4092C93.1974 60.8031 92.5243 61 91.647 61H88.7949ZM90.1538 57.4712V59.915H91.6631C92.0892 59.915 92.4222 59.8094 92.6621 59.5981C92.902 59.3869 93.022 59.0933 93.022 58.7173C93.022 57.9045 92.6066 57.4891 91.7759 57.4712H90.1538ZM90.1538 56.4722H91.4858C91.9084 56.4722 92.2378 56.3773 92.4741 56.1875C92.714 55.9941 92.834 55.722 92.834 55.3711C92.834 54.9844 92.723 54.7051 92.501 54.5332C92.2826 54.3613 91.9406 54.2754 91.4751 54.2754H90.1538V56.4722ZM101.834 54.2754H99.3959V61H98.0478V54.2754H95.6308V53.1797H101.834V54.2754ZM109.283 58.4541C109.204 59.2884 108.896 59.9401 108.359 60.4092C107.822 60.8747 107.107 61.1074 106.216 61.1074C105.593 61.1074 105.043 60.9606 104.567 60.667C104.094 60.3698 103.729 59.9491 103.471 59.4048C103.213 58.8605 103.079 58.2285 103.068 57.5088V56.7783C103.068 56.0407 103.199 55.3908 103.46 54.8286C103.722 54.2664 104.096 53.8332 104.583 53.5288C105.073 53.2244 105.639 53.0723 106.28 53.0723C107.143 53.0723 107.838 53.3068 108.364 53.7759C108.89 54.245 109.197 54.9074 109.283 55.7632H107.929C107.865 55.201 107.7 54.7964 107.435 54.5493C107.173 54.2987 106.789 54.1733 106.28 54.1733C105.689 54.1733 105.235 54.39 104.916 54.8232C104.601 55.2529 104.44 55.8849 104.432 56.7192V57.4121C104.432 58.2572 104.583 58.9017 104.884 59.3457C105.188 59.7897 105.632 60.0117 106.216 60.0117C106.749 60.0117 107.15 59.8918 107.419 59.6519C107.687 59.4119 107.857 59.0127 107.929 58.4541H109.283Z" fill="#66688F"/>
<path d="M135 61C145.837 61 154.697 62.9289 154.697 80.697" stroke="url(#paint0_linear)" stroke-width="4"/>
<path fill-rule="evenodd" clip-rule="evenodd" d="M154.697 87C154.988 87 162.315 77.5454 160.792 77.5454C159.268 77.5454 150.126 77.5454 148.602 77.5454C147.078 77.5454 154.406 87 154.697 87Z" fill="url(#paint1_linear)" stroke="url(#paint2_linear)"/>
<path d="M35 113C24.1629 113 15.303 111.071 15.303 93.303" stroke="url(#paint3_linear)" stroke-width="4"/>
<path fill-rule="evenodd" clip-rule="evenodd" d="M15.303 87C15.0121 87 7.68457 96.4546 9.20827 96.4546C10.732 96.4546 19.8741 96.4546 21.3978 96.4546C22.9215 96.4546 15.594 87 15.303 87Z" fill="url(#paint4_linear)" stroke="url(#paint5_linear)"/>
<defs>
<linearGradient id="paint0_linear" x1="168.123" y1="56.8643" x2="120.458" y2="30.0119" gradientUnits="userSpaceOnUse">
<stop stop-color="#FF4465"/>
<stop offset="1" stop-color="#F6CA1D"/>
</linearGradient>
<linearGradient id="paint1_linear" x1="141.016" y1="83.6278" x2="153.01" y2="98.1781" gradientUnits="userSpaceOnUse">
<stop stop-color="#FF4465"/>
<stop offset="1" stop-color="#F6CA1D"/>
</linearGradient>
<linearGradient id="paint2_linear" x1="141.016" y1="83.6278" x2="153.01" y2="98.1781" gradientUnits="userSpaceOnUse">
<stop stop-color="#FF4465"/>
<stop offset="1" stop-color="#F6CA1D"/>
</linearGradient>
<linearGradient id="paint3_linear" x1="1.87681" y1="117.136" x2="49.5421" y2="143.988" gradientUnits="userSpaceOnUse">
<stop stop-color="#FF4465"/>
<stop offset="1" stop-color="#F6CA1D"/>
</linearGradient>
<linearGradient id="paint4_linear" x1="28.9844" y1="90.3722" x2="16.9897" y2="75.8219" gradientUnits="userSpaceOnUse">
<stop stop-color="#FF4465"/>
<stop offset="1" stop-color="#F6CA1D"/>
</linearGradient>
<linearGradient id="paint5_linear" x1="28.9844" y1="90.3722" x2="16.9897" y2="75.8219" gradientUnits="userSpaceOnUse">
<stop stop-color="#FF4465"/>
<stop offset="1" stop-color="#F6CA1D"/>
</linearGradient>
</defs>
</svg>
