<svg width="168" height="168" viewBox="0 0 168 168" fill="none" xmlns="http://www.w3.org/2000/svg">
<g clip-path="url(#clip0)">
<rect y="110.362" width="168" height="42.0426" rx="12" fill="#2E2F47"/>
<path d="M123.645 131.601L125.288 128.775H126.857L124.493 132.653L126.91 136.596H125.326L123.645 133.728L121.958 136.596H120.379L122.802 132.653L120.433 128.775H122.001L123.645 131.601ZM130.277 128.775L132.532 134.77L134.783 128.775H136.539V136.596H135.186V134.018L135.32 130.569L133.01 136.596H132.038L129.734 130.575L129.868 134.018V136.596H128.515V128.775H130.277ZM141.624 133.583H140.109V136.596H138.751V128.775H141.501C142.403 128.775 143.099 128.978 143.59 129.382C144.08 129.787 144.326 130.372 144.326 131.139C144.326 131.661 144.199 132.1 143.944 132.455C143.694 132.806 143.343 133.076 142.892 133.266L144.648 136.526V136.596H143.192L141.624 133.583ZM140.109 132.492H141.506C141.964 132.492 142.322 132.378 142.58 132.148C142.838 131.916 142.967 131.599 142.967 131.198C142.967 130.779 142.847 130.455 142.607 130.226C142.371 129.996 142.016 129.878 141.544 129.871H140.109V132.492Z" fill="#66688F"/>
<path fill-rule="evenodd" clip-rule="evenodd" d="M19.8014 126.732V134.162V134.162H17.137C16.8464 133.288 16.6887 132.354 16.6887 131.383C16.6887 126.495 20.6737 122.532 25.5894 122.532C30.5052 122.532 34.49 126.495 34.49 131.383C34.4908 132.327 34.3395 133.266 34.0417 134.162H31.3769V126.738L25.592 132.49L19.8014 126.732ZM29.4458 131.265V135.963V135.963H33.2074C31.6476 138.523 28.8195 140.234 25.5894 140.234C22.3593 140.234 19.5312 138.523 17.9714 135.963H21.6998V131.292L25.5591 135.13L29.4458 131.265Z" fill="#FF7416"/>
</g>
<g clip-path="url(#clip1)">
<rect y="61.6808" width="168" height="42.0208" rx="12" fill="#2E2F47"/>
<path fill-rule="evenodd" clip-rule="evenodd" d="M26.1739 73.693C21.1313 73.693 17.0435 77.7265 17.0435 82.7021C17.0435 87.6777 21.1313 91.7112 26.1739 91.7112C31.2165 91.7112 35.3043 87.6777 35.3043 82.7021C35.3043 77.7265 31.2165 73.693 26.1739 73.693ZM26.0555 88.6709L22.4473 83.6346L26.0555 85.7191V88.6709ZM22.4229 82.8814L26.0555 84.981V81.3113L22.4229 82.8814ZM26.0555 81.059L22.5399 82.5784L26.0555 76.7501V81.059ZM29.8547 82.6L26.2897 76.7483V81.059L29.8547 82.6ZM26.2897 88.6709V85.7191L29.8979 83.6346L26.2897 88.6709ZM26.2897 81.3114V84.9811L29.925 82.8826L26.2897 81.3114Z" fill="white"/>
<path d="M125.887 83.9904H122.676V86.3966H126.43V87.4816H121.317V79.6613H126.392V80.757H122.676V82.9161H125.887V83.9904ZM133.894 80.757H131.456V87.4816H130.108V80.757H127.691V79.6613H133.894V80.757ZM141.734 87.4816H140.381V84.0065H136.884V87.4816H135.525V79.6613H136.884V82.9161H140.381V79.6613H141.734V87.4816Z" fill="#66688F"/>
</g>
<g clip-path="url(#clip2)">
<rect y="13" width="168" height="42.0208" rx="12" fill="#2E2F47"/>
<path fill-rule="evenodd" clip-rule="evenodd" d="M17.0515 33.7426C17.0515 28.7607 21.2017 24.7221 26.3212 24.7221C31.4406 24.7221 35.5906 28.7607 35.5906 33.7426C35.5906 38.7244 31.4406 42.7631 26.3212 42.7631C21.2017 42.7631 17.0515 38.7244 17.0515 33.7426ZM28.3672 37.7814C28.7049 37.7388 29.4229 37.6481 30.0955 37.1916C30.785 36.7235 30.9399 35.9899 30.9556 35.2512C30.972 34.5124 30.683 34.0079 30.2931 33.7218C29.9026 33.4356 29.3468 33.3212 29.3468 33.3212C29.3468 33.3212 29.8172 33.0559 30.0095 32.7905C30.2021 32.5254 30.2983 32.1143 30.3143 31.901C30.3303 31.6877 30.3679 30.793 29.6514 30.278C29.0972 29.8795 28.4623 29.7214 27.6094 29.6699V27.8642H26.4653V29.6485H25.5941V27.8642H24.4501V29.6485H22.1996V30.8044H22.8609C23.0414 30.8044 23.3621 30.8239 23.4984 30.9724C23.6347 31.1206 23.6589 31.1987 23.6589 31.4873V36.0937C23.6589 36.2031 23.6374 36.3383 23.5412 36.4268C23.445 36.5152 23.349 36.5359 23.119 36.5359H22.4348L22.1997 37.8731H24.4502V39.6523H25.5942V37.8731H26.4655V39.6523H27.6096V37.8438C27.9052 37.827 28.1809 37.8052 28.3419 37.7846L28.3672 37.7814ZM28.144 34.445C27.9303 34.3408 27.4544 34.2005 26.8879 34.164C26.3212 34.1276 25.5942 34.164 25.5942 34.164V36.5517C25.5942 36.5517 26.3533 36.5674 26.8613 36.531C27.3689 36.4946 27.8929 36.3698 28.1549 36.2291C28.4166 36.0887 28.7321 35.8702 28.7321 35.3241C28.7321 34.7778 28.3579 34.549 28.144 34.445ZM27.727 32.775C27.4065 32.9467 26.9629 33.0402 26.5457 33.0559C26.1326 33.0714 25.604 33.0562 25.5943 33.0559L25.5941 33.0559V30.9074C25.5941 30.9074 25.9577 30.8763 26.3158 30.8814C26.6742 30.8865 26.9894 30.8969 27.46 31.0374C27.9303 31.178 28.2081 31.5213 28.219 31.9271C28.2295 32.333 28.0478 32.6033 27.727 32.775Z" fill="#F5FF30"/>
<path d="M121.317 38.7225V30.9022H123.997C124.881 30.9022 125.554 31.0794 126.016 31.4339C126.478 31.7884 126.709 32.3166 126.709 33.0184C126.709 33.3765 126.613 33.6987 126.419 33.9852C126.226 34.2717 125.943 34.4937 125.571 34.6512C125.993 34.7658 126.319 34.9824 126.548 35.3011C126.781 35.6162 126.897 35.9958 126.897 36.4398C126.897 37.1738 126.661 37.7378 126.188 38.1317C125.719 38.5256 125.046 38.7225 124.169 38.7225H121.317ZM122.676 35.1937V37.6375H124.185C124.611 37.6375 124.944 37.5319 125.184 37.3206C125.424 37.1094 125.544 36.8158 125.544 36.4398C125.544 35.627 125.128 35.2116 124.298 35.1937H122.676ZM122.676 34.1947H124.008C124.43 34.1947 124.76 34.0998 124.996 33.91C125.236 33.7166 125.356 33.4445 125.356 33.0936C125.356 32.7069 125.245 32.4276 125.023 32.2557C124.804 32.0838 124.462 31.9979 123.997 31.9979H122.676V34.1947ZM134.356 31.9979H131.918V38.7225H130.569V31.9979H128.152V30.9022H134.356V31.9979ZM141.804 36.1766C141.725 37.0109 141.418 37.6626 140.88 38.1317C140.343 38.5972 139.629 38.8299 138.737 38.8299C138.114 38.8299 137.565 38.6831 137.088 38.3895C136.616 38.0923 136.251 37.6716 135.993 37.1273C135.735 36.583 135.601 35.951 135.59 35.2313V34.5008C135.59 33.7632 135.721 33.1133 135.982 32.5511C136.243 31.9889 136.618 31.5557 137.105 31.2513C137.595 30.947 138.161 30.7948 138.802 30.7948C139.665 30.7948 140.359 31.0293 140.886 31.4984C141.412 31.9675 141.718 32.6299 141.804 33.4857H140.451C140.386 32.9235 140.222 32.5189 139.957 32.2718C139.695 32.0212 139.31 31.8958 138.802 31.8958C138.211 31.8958 137.756 32.1125 137.438 32.5457C137.122 32.9754 136.961 33.6074 136.954 34.4417V35.1346C136.954 35.9797 137.105 36.6242 137.405 37.0682C137.71 37.5122 138.154 37.7342 138.737 37.7342C139.271 37.7342 139.672 37.6143 139.94 37.3744C140.209 37.1345 140.379 36.7352 140.451 36.1766H141.804Z" fill="#66688F"/>
</g>
<defs>
<clipPath id="clip0">
<rect width="168" height="42.8936" fill="white" transform="translate(0 110.362)"/>
</clipPath>
<clipPath id="clip1">
<rect width="168" height="42.8936" fill="white" transform="translate(0 61.6808)"/>
</clipPath>
<clipPath id="clip2">
<rect width="168" height="42.8936" fill="white" transform="translate(0 13)"/>
</clipPath>
</defs>
</svg>
